<svg width="25" height="25" viewBox="0 0 25 25" fill="none" xmlns="http://www.w3.org/2000/svg">
<path d="M7.69717 2.74745C8.95094 2.10033 10.2988 1.69918 11.6692 1.54401L9.08148 4.13175L7.69717 2.74745ZM5.54594 9.08149L9.08148 5.54596L12.2635 8.72794L8.72792 12.2635L5.54594 9.08149ZM9.43503 12.9706L12.9706 9.43505L16.8596 13.3241L13.3241 16.8597L9.43503 12.9706ZM17.5668 12.617L13.6777 8.72794L16.5061 5.89951L20.3952 9.7886L17.5668 12.617ZM14.0312 17.5668L17.5668 14.0312L20.0416 16.5061L16.5061 20.0416L14.0312 17.5668ZM20.7487 15.799L18.2739 13.3241L21.1023 10.4957L23.5772 12.9706L20.7487 15.799ZM17.2132 20.7488L20.7487 17.2132L22.5165 18.981L23.1278 18.3697C22.6052 19.352 21.93 20.2746 21.1023 21.1023C20.2746 21.93 19.352 22.6052 18.3696 23.1278L18.981 22.5165L17.2132 20.7488ZM23.1937 18.244L21.4558 16.5061L24.4583 13.5037C24.383 15.1366 23.9614 16.7565 23.1937 18.244ZM23.4253 8.17268C24.0466 9.52691 24.3909 10.977 24.4583 12.4375L21.8094 9.7886L23.4253 8.17268ZM22.8701 7.31373L21.1023 9.08149L17.2132 5.19241L18.981 3.42464L18.3696 2.81331C19.352 3.33593 20.2746 4.01111 21.1023 4.83885C21.93 5.66659 22.6052 6.58912 23.1278 7.5715L22.8701 7.31373ZM16.5061 4.4853L13.5037 1.48287C15.1366 1.55818 16.7565 1.9797 18.244 2.74745L16.5061 4.4853ZM15.799 5.19241L12.9706 8.02083L9.78858 4.83885L12.617 2.01043L15.799 5.19241ZM16.5061 21.4559L18.244 23.1937C16.7565 23.9615 15.1366 24.383 13.5037 24.4583L16.5061 21.4559ZM9.78858 21.8094L12.4375 24.4583C10.977 24.3909 9.52689 24.0466 8.17266 23.4253L9.78858 21.8094ZM7.31371 22.8701L7.57148 23.1278C6.5891 22.6052 5.66657 21.93 4.83883 21.1023C4.01109 20.2746 3.33592 19.352 2.8133 18.3697L3.42462 18.981L5.19239 17.2132L9.08148 21.1023L7.31371 22.8701ZM4.48528 16.5061L2.74743 18.244C1.97969 16.7565 1.55816 15.1366 1.48285 13.5037L4.48528 16.5061ZM5.19239 15.799L2.01041 12.617L4.83883 9.7886L8.02082 12.9706L5.19239 15.799ZM5.89949 16.5061L8.72792 13.6777L12.617 17.5668L9.78858 20.3952L5.89949 16.5061ZM10.4957 21.1023L13.3241 18.2739L15.799 20.7488L12.9706 23.5772L10.4957 21.1023ZM4.13173 9.08149L1.54399 11.6692C1.69916 10.2988 2.10031 8.95096 2.74743 7.69719L4.13173 9.08149ZM4.83883 8.37439L3.26376 6.79931C3.70672 6.10403 4.23174 5.44594 4.83883 4.83885C5.44593 4.23176 6.10401 3.70674 6.79929 3.26378L8.37437 4.83885L4.83883 8.37439Z" fill="#DEF7B1" stroke="black"/>
</svg>
